<?xml version="1.0" encoding="UTF-8" standalone="no"?>
<svg
   xmlns:dc="http://purl.org/dc/elements/1.1/"
   xmlns:cc="http://creativecommons.org/ns#"
   xmlns:rdf="http://www.w3.org/1999/02/22-rdf-syntax-ns#"
   xmlns:svg="http://www.w3.org/2000/svg"
   xmlns="http://www.w3.org/2000/svg"
   viewBox="0 0 560.97333 206.08"
   height="206.08"
   width="560.97333"
   xml:space="preserve"
   id="svg2"
   version="1.1"><metadata
     id="metadata8"><rdf:RDF><cc:Work
         rdf:about=""><dc:format>image/svg+xml</dc:format><dc:type
           rdf:resource="http://purl.org/dc/dcmitype/StillImage" /></cc:Work></rdf:RDF></metadata><defs
     id="defs6" /><g
     transform="matrix(1.3333333,0,0,-1.3333333,0,206.08)"
     id="g10"><g
       transform="scale(0.1)"
       id="g12"><path
         id="path14"
         style="fill:#ffffff;fill-opacity:1;fill-rule:nonzero;stroke:none"
         d="M 724.41,810.648 C 686.031,785.992 639.262,773.719 584.246,773.719 h -23.953 v 321.661 h 23.953 c 55.016,0 101.785,-12.33 140.164,-36.95 38.383,-24.66 57.586,-65.942 57.586,-123.867 0,-57.985 -19.203,-99.278 -57.586,-123.915 z M 1147.14,610.73 c 24.61,33.262 47.07,75.313 67.37,126.055 20.27,50.676 30.43,112.278 30.43,184.723 0,91.242 -16.31,172.042 -48.89,242.342 -32.61,70.31 -77.91,129.32 -135.85,177.13 -57.98,47.8 -126.434,84.01 -205.411,108.67 -78.973,24.61 -164.816,36.94 -257.5,36.94 H 97.4063 L 0,1106.29 H 97.4063 V 36.9414 H 560.293 V 404.219 L 777.66,36.9414 h 543.35 L 1049.34,515.039 c 36.17,26.18 68.8,57.988 97.8,95.691" /><path
         id="path16"
         style="fill:#ffffff;fill-opacity:1;fill-rule:nonzero;stroke:none"
         d="m 1827.38,584.617 h 292.33 l 92.38,360.821 h -384.71 v 160.852 h 293.84 l 97.39,380.3 15.06,58.96 h -358.48 l -15.09,-58.96 h -495.68 l -97.36,-380.3 h 97.36 V 36.9414 h 772.01 l 97.36,380.2886 h -406.41 v 167.387" /><path
         id="path18"
         style="fill:#ffffff;fill-opacity:1;fill-rule:nonzero;stroke:none"
         d="m 4177.93,612.188 c -19.58,48.269 -43.52,91.667 -71.74,130.132 -28.27,38.317 -59.45,72.469 -93.47,102.368 -34.03,29.89 -65.2,56.117 -93.48,78.867 -28.22,22.765 -52.13,42.742 -71.71,59.73 -19.56,17.145 -29.34,31.325 -29.34,42.715 0,12.79 4.33,22.69 13.04,29.82 8.69,7.12 18.83,12.07 30.43,14.93 11.62,2.88 23.94,4.63 36.98,5.35 13.03,0.7 23.87,1.05 32.58,1.05 15.95,0 31.17,-0.69 45.65,-2.09 14.46,-1.43 27.5,-2.9 39.12,-4.31 14.44,-1.44 27.48,-2.86 39.09,-4.23 l 94.39,407.6 3.01,12.47 h -0.09 l 13.64,58.96 h -358.47 l -13.57,-52.97 c -10.05,0.33 -20.1,0.53 -30.11,0.53 -66.64,0 -129.33,-8.93 -187.99,-26.64 -58.7,-17.79 -109.77,-43.78 -153.2,-77.89 -43.5,-34.14 -77.56,-76.8 -102.18,-127.97 -24.65,-51.2 -36.95,-110.18 -36.95,-177.08 0,-59.73 10.12,-112.717 30.4,-158.878 20.29,-46.207 46,-87.843 77.14,-124.797 31.2,-36.98 64.49,-69.64 100.03,-98.109 35.46,-28.426 68.78,-54.426 99.95,-77.883 31.17,-23.406 56.84,-44.734 77.17,-63.992 20.29,-19.152 30.41,-38.031 30.41,-56.473 0,-48.367 -33.36,-72.546 -99.97,-72.546 -37.69,0 -74.98,2.148 -111.9,6.41 -33.6,3.929 -63.88,8.898 -90.91,15.199 L 3290.08,50.5586 c 34.22,-9.6484 71.84,-18 113.03,-24.918 36.17,-7.1601 77.83,-13.2109 124.99,-18.23044 C 3575.12,2.48828 3626.2,0 3681.25,0 c 91.32,0 170.26,11.7617 236.94,35.1602 66.64,23.5195 121.3,55.5 164.09,95.9688 42.7,40.609 74.22,88.16 94.54,142.98 20.28,54.68 30.43,113.34 30.43,175.95 0,59.73 -9.76,113.757 -29.32,162.129" /><path
         id="path20"
         style="fill:#ffffff;fill-opacity:1;fill-rule:nonzero;stroke:none"
         d="m 2874.97,1545.55 -15.13,-58.96 h -495.66 l -97.36,-380.3 h 97.36 V 36.9414 h 462.95 V 584.617 h 292.31 l 92.38,360.821 h -384.69 v 160.852 h 293.85 l 97.35,380.3 v 0 l 15.09,58.96 h -358.45" /></g></g></svg>