<?xml version="1.0" ?><!DOCTYPE svg  PUBLIC '-//W3C//DTD SVG 1.1//EN'  'http://www.w3.org/Graphics/SVG/1.1/DTD/svg11.dtd'><svg enable-background="new 0 0 512 512" height="512px" version="1.1" viewBox="0 0 512 512" width="512px" xml:space="preserve" xmlns="http://www.w3.org/2000/svg" xmlns:xlink="http://www.w3.org/1999/xlink"><g><g id="Guides"/><g id="Layer_2"><g><path d="M507,257c0,138.066-111.934,250-250,250C118.933,507,7,395.066,7,257C7,118.933,118.933,7,257,7      C395.066,7,507,118.933,507,257L507,257z M507,257" fill="#3A5976"/><path d="M266.27,176.488v-67.154h-43.346c-0.979,2.464-1.458,5.442-1.458,8.445      c-0.457,1.461-0.979,2.502-0.979,3.96c-4.461,24.896-17.386,42.258-39.298,51.745c-6.484,3.003-12.469,3.46-18.888,3.003v54.142      h31.835c0.522,76.157,0.522,115.434,0.522,117.414v4.525c4.004,33.228,21.368,53.138,52.224,60.624      c12.403,3.438,25.807,4.982,39.276,4.982c17.364-0.544,34.294-3.525,51.201-8.943V345.52      c-9.879,3.003-18.888,5.505-26.852,7.964c-15.385,4.505-28.332,1.523-38.82-8.421c-1.001-1.523-2.458-3.525-2.98-5.505      c-1.458-7.965-2.394-16.407-2.394-24.35v-84.603h69.065v-54.117H266.27z M266.27,176.488" fill="#F2F2F2"/></g></g></g></svg>